<?xml version="1.0" encoding="UTF-8" standalone="no"?>
<!-- Creator: fig2dev Version 3.2 Patchlevel 5e -->

<!-- CreationDate: Tue Mar 24 18:51:25 2015 -->

<!-- Magnification: 1.050 -->

<svg
   xmlns:dc="http://purl.org/dc/elements/1.1/"
   xmlns:cc="http://creativecommons.org/ns#"
   xmlns:rdf="http://www.w3.org/1999/02/22-rdf-syntax-ns#"
   xmlns:svg="http://www.w3.org/2000/svg"
   xmlns="http://www.w3.org/2000/svg"
   xmlns:sodipodi="http://sodipodi.sourceforge.net/DTD/sodipodi-0.dtd"
   xmlns:inkscape="http://www.inkscape.org/namespaces/inkscape"
   width="282.76212"
   height="141.64198"
   viewBox="2113 6365 3774.1441 1893.6837"
   id="svg2"
   version="1.1"
   inkscape:version="0.48.4 r9939"
   sodipodi:docname="hyperboloid2.svg">
  <metadata
     id="metadata122">
    <rdf:RDF>
      <cc:Work
         rdf:about="">
        <dc:format>image/svg+xml</dc:format>
        <dc:type
           rdf:resource="http://purl.org/dc/dcmitype/StillImage" />
        <dc:title></dc:title>
      </cc:Work>
    </rdf:RDF>
  </metadata>
  <defs
     id="defs120" />
  <sodipodi:namedview
     pagecolor="#ffffff"
     bordercolor="#666666"
     borderopacity="1"
     objecttolerance="10"
     gridtolerance="10"
     guidetolerance="10"
     inkscape:pageopacity="0"
     inkscape:pageshadow="2"
     inkscape:window-width="1600"
     inkscape:window-height="738"
     id="namedview118"
     showgrid="false"
     fit-margin-top="10"
     fit-margin-left="10"
     fit-margin-right="10"
     fit-margin-bottom="10"
     inkscape:zoom="2.4154511"
     inkscape:cx="137.68721"
     inkscape:cy="54.13291"
     inkscape:window-x="0"
     inkscape:window-y="25"
     inkscape:window-maximized="1"
     inkscape:current-layer="g4061" />
  <g
     style="fill:none;stroke-width:0.025in"
     id="g4"
     transform="translate(-4408.4279,-165.01087)">
    <!-- Line -->
    <!--  polyline  -->
    <polyline
       points="2498,10837 2503,10837 2508,10837 2512,10837 2522,10837 2531,10837 2541,10837 2555,10837 2569,10837 2583,10837 2602,10837 2621,10837 2640,10837 2664,10837 2687,10837 2714,10837 2739,10837 2772,10837 2799,10837 2834,10837 2867,10837 2900,10837 2933,10837 2971,10837 3008,10837 3051,10837 3089,10837 3131,10837 3174,10841 3216,10841 3264,10841 3311,10841 3358,10841 3405,10841 3453,10841 3500,10841 3552,10841 3604,10841 3656,10841 3708,10841 3760,10841 3812,10841 3864,10841 3920,10841 3972,10841 4029,10841 4081,10841 4138,10841 4194,10841 4246,10841 4303,10841 4360,10841 4411,10841 4468,10841 4520,10841 4577,10841 4629,10841 4686,10841 4737,10841 4789,10841 4841,10841 4893,10841 4945,10841 4993,10841 5045,10841 5092,10841 5139,10841 5186,10841 5234,10841 5276,10841 5323,10841 5366,10837 5408,10837 5446,10837 5489,10837 5526,10837 5564,10837 5597,10837 5635,10837 5668,10837 5697,10837 5730,10837 5758,10837 5786,10837 5809,10837 5834,10837 5857,10837 5881,10837 5900,10837 5914,10837 5933,10837 5947,10837 5961,10837 5971,10837 5980,10837 5989,10837 5994,10837 5998,10837 6004,10837 "
       style="stroke:#000000;stroke-width:8;stroke-linecap:butt;stroke-linejoin:round"
       id="polyline6" />
    <!-- Line -->
    <!--  polyline  -->
    <!-- Line -->
    <!--  polyline  -->
    <polyline
       points="4251,7062 4308,7062 4360,7062 4416,7062 4468,7062 4525,7062 4577,7062 4634,7062 4686,7062 4737,7062 4794,7062 4846,7062 4898,7062 4945,7062 4997,7062 5045,7062 5097,7062 5144,7062 5191,7062 5234,7062 5281,7062 5323,7062 5366,7057 5408,7057 5451,7057 5489,7057 5526,7057 5564,7057 5602,7057 5635,7057 5668,7057 5701,7057 5730,7057 5758,7057 5786,7057 5809,7057 5838,7057 5857,7057 5881,7057 5900,7057 5919,7057 5933,7057 5947,7057 5961,7057 5971,7057 5980,7057 5989,7057 5994,7057 5998,7057 6004,7057 5998,7057 5994,7057 5989,7057 5980,7057 5971,7057 5961,7057 5947,7057 5933,7057 5919,7057 5900,7057 5881,7057 5857,7057 5838,7057 5809,7057 5786,7057 5758,7057 5730,7057 5701,7057 5668,7057 5635,7057 5602,7057 5564,7057 5526,7057 5489,7057 5451,7057 5408,7057 5366,7057 5323,7053 5281,7053 5234,7053 5191,7053 5144,7053 5097,7053 5045,7053 4997,7053 4945,7053 4898,7053 4846,7053 4794,7053 4737,7053 4686,7053 4634,7053 4577,7053 4525,7053 4468,7053 4416,7053 4360,7053 4308,7053 4251,7053 4194,7053 4142,7053 4086,7053 4034,7053 3977,7053 3925,7053 3868,7053 3816,7053 3764,7053 3708,7053 3656,7053 3604,7053 3556,7053 3504,7053 3457,7053 3405,7053 3358,7053 3311,7053 3268,7053 3220,7053 3177,7053 3135,7057 3093,7057 3051,7057 3013,7057 2975,7057 2938,7057 2900,7057 2867,7057 2834,7057 2799,7057 2772,7057 2744,7057 2714,7057 2692,7057 2664,7057 2645,7057 2621,7057 2602,7057 2583,7057 2569,7057 2555,7057 2541,7057 2531,7057 2522,7057 2512,7057 2508,7057 2503,7057 2498,7057 2503,7057 2508,7057 2512,7057 2522,7057 2531,7057 2541,7057 2555,7057 2569,7057 2583,7057 2602,7057 2621,7057 2645,7057 2664,7057 2692,7057 2714,7057 2744,7057 2772,7057 2799,7057 2834,7057 2867,7057 2900,7057 2938,7057 2975,7057 3013,7057 3051,7057 3093,7057 3135,7057 3177,7062 3220,7062 3268,7062 3311,7062 3358,7062 3405,7062 3457,7062 3504,7062 3556,7062 3604,7062 3656,7062 3708,7062 3764,7062 3816,7062 3868,7062 3925,7062 3977,7062 4034,7062 4086,7062 4142,7062 4194,7062 4251,7062 "
       style="stroke:#000000;stroke-width:8;stroke-linecap:butt;stroke-linejoin:round"
       id="polyline10" />
    <!-- Line -->
    <!--  polyline  -->
    <!-- Line -->
    <!--  spline  -->
    <polyline
       points="4289,10837 4289,10836 4288,10833 4288,10829 4287,10826 4287,10825 4286,10824 4285,10822 4283,10818 4281,10815 4279,10812 4277,10811 4277,10810 4276,10809 4272,10806 4269,10804 4268,10803 4266,10802 4263,10801 4259,10799 4256,10798 4254,10798 4251,10798 4250,10798 4247,10799 4243,10799 4240,10801 4239,10801 4238,10802 4236,10802 4233,10804 4229,10806 4226,10809 4225,10810 4224,10811 4223,10812 4220,10815 4218,10818 4217,10819 4216,10822 4215,10825 4214,10829 4213,10832 4213,10835 4213,10837 4213,10838 4214,10840 4214,10846 4215,10848 4215,10849 4216,10851 4216,10853 4218,10856 4220,10859 4223,10862 4224,10864 4225,10864 4226,10865 4229,10867 4233,10869 4234,10870 4234,10871 4236,10871 4239,10873 4243,10874 4246,10875 4249,10875 4251,10875 4253,10875 4255,10874 4260,10874 4262,10873 4263,10873 4264,10872 4266,10871 4269,10869 4272,10867 4276,10865 4277,10864 4279,10862 4281,10859 4283,10856 4284,10855 4285,10854 4285,10853 4287,10849 4288,10845 4289,10841 4289,10839 4289,10837 "
       style="stroke:#000000;stroke-width:8;stroke-linecap:butt;stroke-linejoin:bevel"
       id="polyline14" />
    <!-- Line -->
    <!--  spline  -->
    <!-- Line -->
    <!--  spline  -->
    <polyline
       points="4289,7057 4289,7056 4288,7054 4288,7048 4287,7046 4287,7045 4286,7043 4285,7041 4283,7038 4281,7035 4279,7032 4277,7030 4276,7029 4272,7027 4269,7025 4268,7024 4266,7023 4263,7022 4259,7021 4256,7020 4254,7020 4251,7020 4250,7020 4247,7021 4243,7021 4240,7022 4239,7022 4238,7023 4236,7024 4233,7025 4229,7027 4226,7029 4225,7030 4224,7030 4223,7032 4220,7035 4218,7038 4217,7039 4217,7040 4216,7041 4215,7045 4214,7049 4213,7053 4213,7055 4213,7057 4213,7058 4214,7061 4214,7065 4215,7068 4215,7069 4216,7071 4216,7074 4218,7077 4220,7080 4223,7083 4224,7084 4225,7085 4226,7086 4229,7088 4233,7090 4234,7091 4236,7092 4239,7093 4243,7095 4246,7095 4249,7095 4251,7095 4253,7095 4255,7095 4260,7093 4262,7093 4263,7093 4264,7092 4266,7092 4269,7090 4272,7088 4276,7086 4277,7085 4277,7084 4279,7083 4281,7080 4283,7077 4284,7076 4285,7075 4285,7074 4287,7069 4288,7065 4289,7062 4289,7059 4289,7057 "
       style="stroke:#000000;stroke-width:8;stroke-linecap:butt;stroke-linejoin:bevel"
       id="polyline18" />
    <!-- Line -->
    <!--  spline  -->
    <!-- Line -->
    <!--  polyline  -->
    <polyline
       points="6004,10837 5909,10752 5824,10671 5739,10596 5659,10520 5577,10454 5508,10388 5437,10327 5371,10270 5304,10218 5243,10166 5182,10119 5125,10071 5068,10029 5016,9991 4964,9953 4917,9920 4870,9887 4823,9859 4775,9830 4733,9802 4690,9783 4648,9760 4609,9741 4572,9727 4530,9708 4492,9698 4459,9683 4420,9675 4383,9670 4350,9660 4312,9660 4279,9656 4241,9656 4208,9656 4171,9660 4133,9665 4100,9670 4062,9679 4024,9689 3986,9703 3949,9717 3911,9731 3872,9750 3830,9769 3788,9793 3745,9816 3703,9845 3656,9872 3608,9901 3561,9934 3509,9972 3457,10010 3405,10053 3349,10095 3287,10142 3226,10190 3164,10246 3098,10298 3027,10360 2956,10420 2881,10487 2799,10558 2720,10634 2635,10714 2498,10837 "
       style="stroke:#ff0000;stroke-width:16;stroke-linecap:butt;stroke-linejoin:round"
       id="polyline22" />
    <!-- Line -->
    <!--  polyline  -->
    <!-- Line -->
    <!--  polyline  -->
    <polyline
       points="6004,7057 5909,7142 5824,7223 5739,7298 5659,7374 5577,7440 5508,7506 5437,7568 5371,7624 5304,7676 5243,7728 5182,7776 5125,7823 5068,7865 5016,7903 4964,7941 4917,7974 4870,8007 4823,8035 4775,8064 4733,8092 4690,8111 4648,8135 4609,8153 4572,8167 4530,8187 4492,8196 4459,8209 4420,8220 4383,8224 4350,8234 4312,8234 4279,8238 4241,8238 4208,8238 4171,8234 4133,8229 4100,8224 4062,8215 4024,8205 3986,8191 3949,8177 3911,8163 3872,8144 3830,8125 3788,8101 3745,8078 3703,8049 3656,8020 3608,7993 3561,7960 3509,7922 3457,7884 3405,7842 3349,7799 3287,7752 3226,7704 3164,7648 3098,7596 3027,7535 2956,7472 2881,7407 2799,7336 2720,7261 2635,7180 2498,7057 "
       style="stroke:#ff0000;stroke-width:16;stroke-linecap:butt;stroke-linejoin:round"
       id="polyline26" />
    <!-- Line -->
    <!--  polyline  -->
    <!-- Line -->
    <!--  polyline  -->
    <!-- Line -->
    <!--  polyline  -->
    <!-- Line -->
    <!--  polyline  -->
    <polyline
       points="5125,7062 5082,7147 5035,7227 4993,7303 4955,7374 4917,7445 4879,7506 4841,7568 4808,7624 4775,7681 4747,7728 4719,7780 4686,7823 4662,7865 4634,7903 4609,7941 4582,7979 4558,8007 4534,8040 4515,8064 4492,8092 4473,8116 4449,8135 4430,8153 4411,8172 4393,8187 4374,8196 4355,8209 4335,8220 4317,8224 4298,8234 4284,8234 4265,8238 "
       style="stroke:#000000;stroke-width:8;stroke-linecap:butt;stroke-linejoin:round"
       id="polyline34" />
    <!-- Line -->
    <!--  polyline  -->
    <!-- Line -->
    <!--  polyline  -->
    <polyline
       points="5125,10841 5082,10752 5035,10671 4993,10596 4955,10525 4917,10454 4879,10393 4841,10331 4808,10270 4775,10218 4747,10166 4719,10119 4686,10071 4662,10029 4634,9991 4609,9953 4582,9920 4558,9887 4534,9859 4515,9830 4492,9807 4473,9783 4449,9760 4430,9741 4411,9727 4393,9708 4374,9698 4355,9683 4335,9675 4317,9670 4298,9660 4284,9660 4265,9656 "
       style="stroke:#000000;stroke-width:8;stroke-linecap:butt;stroke-linejoin:round"
       id="polyline38" />
    <!-- Line -->
    <!--  polyline  -->
    <!-- Line -->
    <!--  polyline  -->
    <polyline
       points="5767,7057 5687,7142 5611,7223 5541,7303 5470,7374 5404,7440 5337,7506 5276,7568 5219,7624 5163,7681 5111,7728 5059,7780 5007,7823 4960,7865 4912,7903 4870,7941 4827,7974 4785,8007 4747,8040 4704,8064 4667,8092 4634,8116 4596,8135 4563,8153 4530,8172 4497,8187 4464,8196 4430,8209 4397,8220 4364,8224 4335,8234 4303,8234 4275,8238 "
       style="stroke:#000000;stroke-width:8;stroke-linecap:butt;stroke-linejoin:round"
       id="polyline42" />
    <!-- Line -->
    <!--  polyline  -->
    <!-- Line -->
    <!--  polyline  -->
    <polyline
       points="5767,10837 5687,10752 5611,10671 5541,10596 5470,10525 5404,10454 5337,10388 5276,10331 5219,10270 5163,10218 5111,10166 5059,10119 5007,10071 4960,10029 4912,9991 4870,9953 4827,9920 4785,9887 4747,9859 4704,9830 4667,9807 4634,9783 4596,9760 4563,9741 4530,9727 4497,9708 4464,9698 4430,9683 4397,9675 4364,9670 4335,9660 4303,9660 4275,9656 "
       style="stroke:#000000;stroke-width:8;stroke-linecap:butt;stroke-linejoin:round"
       id="polyline46" />
    <!-- Line -->
    <!--  polyline  -->
    <!-- Line -->
    <!--  polyline  -->
    <polyline
       points="6004,10837 5909,10752 5824,10671 5739,10596 5659,10520 5577,10454 5508,10388 5437,10327 5371,10270 5304,10218 5243,10166 5182,10119 5125,10071 5068,10029 5016,9991 4964,9953 4917,9920 4870,9887 4823,9859 4775,9830 4733,9802 4690,9783 4648,9760 4609,9741 4572,9727 4530,9708 4492,9698 4459,9683 4420,9675 4383,9670 4350,9660 4312,9660 4279,9656 4241,9656 4208,9656 4171,9660 4133,9665 4100,9670 4062,9679 4024,9689 3986,9703 3949,9717 3911,9731 3872,9750 3830,9769 3788,9793 3745,9816 3703,9845 3656,9872 3608,9901 3561,9934 3509,9972 3457,10010 3405,10053 3349,10095 3287,10142 3226,10190 3164,10246 3098,10298 3027,10360 2956,10420 2881,10487 2799,10558 2720,10634 2635,10714 2498,10837 "
       style="stroke:#ff0000;stroke-width:16;stroke-linecap:butt;stroke-linejoin:round"
       id="polyline50" />
    <!-- Line -->
    <!--  polyline  -->
    <!-- Line -->
    <!--  polyline  -->
    <polyline
       points="4241,8238 4251,8238 4213,8238 4180,8234 4152,8229 4119,8224 4086,8215 4057,8205 4024,8191 3991,8177 3958,8163 3920,8144 3887,8125 3849,8101 3812,8078 3774,8049 3736,8020 3693,7993 3651,7960 3608,7922 3566,7884 3519,7842 3467,7799 3419,7752 3363,7704 3311,7653 3254,7596 3193,7535 3131,7472 3065,7407 2994,7336 2923,7261 2853,7185 2734,7057 "
       style="stroke:#000000;stroke-width:8;stroke-linecap:butt;stroke-linejoin:round"
       id="polyline54" />
    <!-- Line -->
    <!--  polyline  -->
    <!-- Line -->
    <!--  polyline  -->
    <polyline
       points="4241,9656 4251,9656 4213,9656 4180,9660 4152,9665 4119,9670 4086,9679 4057,9689 4024,9703 3991,9717 3958,9731 3920,9750 3887,9774 3849,9793 3812,9816 3774,9845 3736,9872 3693,9906 3651,9939 3608,9972 3566,10010 3519,10053 3467,10095 3419,10142 3363,10194 3311,10246 3254,10303 3193,10360 3131,10426 3065,10492 2994,10563 2923,10634 2853,10714 2734,10837 "
       style="stroke:#000000;stroke-width:8;stroke-linecap:butt;stroke-linejoin:round"
       id="polyline58" />
    <!-- Line -->
    <!--  polyline  -->
    <!-- Line -->
    <!--  polyline  -->
    <polyline
       points="4246,8238 4251,8238 4227,8238 4208,8234 4194,8229 4175,8224 4156,8215 4138,8205 4119,8191 4100,8177 4081,8163 4062,8144 4038,8125 4019,8101 3999,8078 3977,8049 3953,8020 3930,7993 3906,7960 3882,7922 3854,7884 3826,7842 3797,7799 3769,7752 3741,7704 3708,7653 3675,7596 3641,7535 3604,7472 3566,7407 3528,7336 3486,7261 3443,7185 3377,7062 "
       style="stroke:#000000;stroke-width:8;stroke-linecap:butt;stroke-linejoin:round"
       id="polyline62" />
    <!-- Line -->
    <!--  polyline  -->
    <polyline
       points="4246,9656 4251,9656 4227,9656 4208,9660 4194,9665 4175,9670 4156,9679 4138,9689 4119,9703 4100,9717 4081,9731 4062,9750 4038,9774 4019,9793 3999,9816 3977,9845 3953,9872 3930,9906 3906,9939 3882,9972 3854,10010 3826,10053 3797,10095 3769,10142 3741,10194 3708,10246 3675,10303 3641,10360 3604,10426 3566,10492 3528,10563 3486,10638 3443,10714 3377,10841 "
       style="stroke:#000000;stroke-width:8;stroke-linecap:butt;stroke-linejoin:round"
       id="polyline64" />
    <!-- Line -->
    <!--  polyline  -->
    <polyline
       points="3689,8040 3693,8040 3698,8040 3703,8040 3708,8040 3712,8040 3717,8040 3722,8040 3725,8040 3736,8040 3741,8040 3750,8040 3760,8040 3764,8040 3774,8040 3788,8040 3797,8040 3807,8040 3816,8040 3830,8040 3840,8040 3854,8040 3868,8040 3878,8040 3892,8040 3906,8040 3920,8045 3934,8045 3949,8045 3967,8045 3982,8045 3996,8045 4015,8045 4029,8045 4043,8045 4062,8045 4076,8045 4095,8045 4114,8045 4128,8045 4146,8045 4166,8045 4180,8045 4199,8045 4218,8045 4237,8045 4251,8045 4270,8045 4289,8045 4308,8045 4322,8045 4341,8045 4360,8045 4374,8045 4393,8045 4411,8045 4426,8045 4445,8045 4459,8045 4478,8045 4492,8045 4506,8045 4525,8045 4539,8045 4553,8045 4567,8045 4582,8045 4596,8040 4609,8040 4624,8040 4638,8040 4651,8040 4662,8040 4676,8040 4686,8040 4695,8040 4709,8040 4719,8040 4728,8040 4737,8040 4747,8040 4752,8040 4761,8040 4771,8040 4775,8040 4780,8040 4789,8040 4794,8040 4798,8040 4804,8040 4808,8040 4813,8040 "
       style="stroke:#000000;stroke-width:8;stroke-linecap:butt;stroke-linejoin:round"
       id="polyline66" />
    <!-- Line -->
    <!--  polyline  -->
    <!-- Line -->
    <!--  polyline  -->
    <polyline
       points="3689,9854 3693,9854 3698,9854 3703,9854 3708,9854 3712,9854 3722,9854 3725,9854 3731,9854 3741,9854 3750,9854 3755,9854 3764,9854 3774,9854 3783,9854 3793,9854 3807,9854 3816,9854 3826,9854 3840,9854 3849,9854 3864,9854 3878,9854 3892,9854 3906,9854 3920,9854 3934,9854 3949,9854 3963,9854 3977,9854 3996,9854 4010,9854 4024,9854 4043,9854 4057,9854 4076,9854 4090,9854 4109,9854 4128,9854 4142,9854 4161,9854 4180,9854 4194,9854 4213,9854 4232,9854 4251,9854 4265,9854 4284,9854 4303,9854 4322,9854 4335,9854 4355,9854 4374,9854 4388,9854 4407,9854 4426,9854 4440,9854 4459,9854 4473,9854 4487,9854 4506,9854 4520,9854 4534,9854 4553,9854 4567,9854 4582,9854 4596,9854 4609,9854 4624,9854 4634,9854 4648,9854 4662,9854 4671,9854 4686,9854 4695,9854 4704,9854 4714,9854 4728,9854 4737,9854 4742,9854 4752,9854 4761,9854 4766,9854 4775,9854 4780,9854 4785,9854 4789,9854 4794,9854 4798,9854 4804,9854 4808,9854 4813,9854 "
       style="stroke:#000000;stroke-width:8;stroke-linecap:butt;stroke-linejoin:round"
       id="polyline70" />
    <!-- Line -->
    <!--  polyline  -->
    <!-- Line -->
    <!--  polyline  -->
    <polyline
       points="3405,7846 3409,7846 3415,7846 3419,7846 3424,7846 3429,7846 3434,7846 3438,7846 3448,7846 3457,7846 3467,7846 3476,7846 3486,7846 3500,7846 3514,7846 3523,7846 3538,7846 3552,7846 3571,7846 3585,7846 3604,7846 3618,7846 3637,7846 3656,7846 3675,7846 3693,7846 3712,7846 3736,7846 3755,7846 3778,7846 3802,7846 3821,7846 3845,7846 3868,7846 3892,7846 3914,7846 3944,7846 3967,7846 3991,7846 4019,7846 4043,7846 4067,7846 4095,7846 4119,7846 4146,7846 4175,7846 4199,7846 4227,7846 4251,7846 4279,7846 4308,7846 4331,7846 4360,7846 4383,7846 4411,7846 4435,7846 4464,7846 4487,7846 4515,7846 4539,7846 4563,7846 4586,7846 4609,7846 4638,7846 4657,7846 4681,7846 4704,7846 4728,7846 4747,7846 4771,7846 4789,7846 4813,7846 4832,7846 4851,7846 4870,7846 4883,7846 4903,7846 4917,7846 4936,7846 4950,7846 4964,7846 4978,7846 4993,7846 5002,7846 5016,7846 5026,7846 5035,7846 5045,7846 5054,7846 5063,7846 5068,7846 5078,7846 5082,7846 5087,7846 5092,7846 5097,7846 "
       style="stroke:#000000;stroke-width:8;stroke-linecap:butt;stroke-linejoin:round"
       id="polyline74" />
    <!-- Line -->
    <!--  polyline  -->
    <!-- Line -->
    <!--  polyline  -->
    <polyline
       points="3405,10048 3409,10048 3415,10048 3419,10048 3424,10048 3434,10048 3438,10048 3448,10048 3457,10048 3467,10048 3476,10048 3486,10048 3500,10048 3509,10048 3523,10048 3538,10048 3552,10053 3566,10053 3585,10053 3598,10053 3618,10053 3632,10053 3651,10053 3670,10053 3689,10053 3712,10053 3731,10053 3755,10053 3774,10053 3797,10053 3821,10053 3845,10053 3864,10053 3892,10053 3914,10053 3939,10053 3963,10053 3986,10053 4015,10053 4038,10053 4067,10053 4090,10053 4119,10053 4142,10053 4171,10053 4194,10053 4223,10053 4251,10053 4275,10053 4303,10053 4326,10053 4355,10053 4383,10053 4407,10053 4435,10053 4459,10053 4482,10053 4511,10053 4534,10053 4558,10053 4586,10053 4609,10053 4634,10053 4657,10053 4681,10053 4700,10053 4723,10053 4747,10053 4766,10053 4789,10053 4808,10053 4827,10053 4846,10053 4865,10053 4883,10053 4898,10053 4917,10053 4931,10053 4950,10053 4964,10053 4978,10048 4988,10048 5002,10048 5016,10048 5026,10048 5035,10048 5045,10048 5054,10048 5063,10048 5068,10048 5072,10048 5078,10048 5082,10048 5087,10048 5092,10048 5097,10048 "
       style="stroke:#000000;stroke-width:8;stroke-linecap:butt;stroke-linejoin:round"
       id="polyline78" />
    <!-- Line -->
    <!--  polyline  -->
    <polyline
       points="3164,7648 3169,7648 3174,7648 3183,7648 3188,7648 3197,7648 3207,7648 3216,7648 3226,7648 3240,7648 3254,7648 3268,7648 3282,7648 3297,7648 3315,7648 3334,7648 3353,7648 3372,7648 3391,7648 3415,7648 3434,7648 3457,7648 3481,7648 3509,7648 3533,7648 3556,7648 3585,7648 3613,7648 3641,7648 3670,7648 3698,7648 3725,7648 3760,7648 3788,7648 3821,7648 3854,7648 3882,7648 3914,7648 3949,7648 3982,7648 4015,7648 4048,7648 4081,7648 4119,7648 4152,7648 4185,7648 4218,7648 4251,7648 4289,7648 4322,7648 4355,7648 4388,7648 4426,7648 4459,7648 4492,7648 4525,7648 4558,7648 4591,7648 4624,7648 4651,7648 4686,7648 4719,7648 4747,7648 4775,7648 4808,7648 4837,7648 4865,7648 4893,7648 4922,7648 4945,7648 4974,7648 4997,7648 5021,7648 5045,7648 5068,7648 5092,7648 5111,7648 5134,7648 5153,7648 5172,7648 5191,7648 5205,7648 5224,7648 5238,7648 5252,7648 5262,7648 5276,7648 5286,7648 5295,7648 5304,7648 5314,7648 5319,7648 5328,7648 5333,7648 5337,7648 "
       style="stroke:#000000;stroke-width:8;stroke-linecap:butt;stroke-linejoin:round"
       id="polyline80" />
    <!-- Line -->
    <!--  polyline  -->
    <!-- Line -->
    <!--  polyline  -->
    <polyline
       points="3164,10246 3169,10246 3174,10246 3183,10246 3188,10246 3197,10246 3207,10246 3216,10246 3226,10246 3240,10246 3249,10246 3264,10246 3278,10246 3297,10246 3311,10246 3330,10246 3349,10246 3367,10246 3391,10246 3409,10246 3434,10246 3457,10246 3481,10246 3504,10246 3528,10246 3556,10246 3580,10246 3608,10246 3637,10246 3665,10246 3693,10246 3725,10246 3755,10246 3783,10246 3816,10246 3849,10246 3878,10246 3911,10246 3944,10246 3977,10246 4010,10246 4043,10246 4076,10246 4114,10246 4146,10246 4180,10246 4213,10246 4251,10246 4284,10246 4317,10246 4350,10246 4383,10246 4420,10246 4454,10246 4487,10246 4520,10246 4553,10246 4586,10246 4619,10246 4648,10246 4681,10246 4714,10246 4742,10246 4775,10246 4804,10246 4832,10246 4860,10246 4889,10246 4917,10246 4945,10246 4969,10246 4993,10246 5021,10246 5045,10246 5068,10246 5087,10246 5111,10246 5130,10246 5149,10246 5167,10246 5186,10246 5205,10246 5219,10246 5234,10246 5248,10246 5262,10246 5276,10246 5286,10246 5295,10246 5304,10246 5314,10246 5319,10246 5328,10246 5333,10246 5337,10246 "
       style="stroke:#000000;stroke-width:8;stroke-linecap:butt;stroke-linejoin:round"
       id="polyline84" />
    <!-- Line -->
    <!--  polyline  -->
    <!-- Line -->
    <!--  polyline  -->
    <polyline
       points="2933,7449 2938,7449 2942,7449 2952,7449 2956,7449 2966,7449 2975,7449 2985,7449 2999,7449 3013,7449 3027,7454 3041,7454 3060,7454 3079,7454 3098,7454 3117,7454 3141,7454 3164,7454 3188,7454 3212,7454 3235,7454 3264,7454 3292,7454 3320,7454 3349,7454 3382,7454 3415,7454 3448,7454 3481,7454 3514,7454 3547,7454 3585,7454 3618,7454 3656,7454 3693,7454 3731,7454 3769,7454 3807,7454 3845,7454 3887,7454 3925,7454 3967,7454 4005,7454 4048,7454 4090,7454 4128,7454 4171,7454 4213,7454 4256,7454 4293,7454 4335,7454 4377,7454 4420,7454 4459,7454 4501,7454 4539,7454 4582,7454 4619,7454 4662,7454 4700,7454 4737,7454 4775,7454 4813,7454 4851,7454 4889,7454 4922,7454 4960,7454 4993,7454 5026,7454 5059,7454 5092,7454 5125,7454 5153,7454 5186,7454 5215,7454 5243,7454 5267,7454 5295,7454 5319,7454 5342,7454 5366,7454 5385,7454 5408,7454 5427,7454 5446,7454 5460,7454 5479,7454 5493,7449 5503,7449 5517,7449 5526,7449 5535,7449 5545,7449 5555,7449 5560,7449 5564,7449 5569,7449 "
       style="stroke:#000000;stroke-width:8;stroke-linecap:butt;stroke-linejoin:round"
       id="polyline88" />
    <!-- Line -->
    <!--  polyline  -->
    <polyline
       points="2933,10445 2938,10445 2942,10445 2946,10445 2956,10445 2966,10445 2975,10445 2985,10445 2999,10445 3008,10445 3023,10445 3041,10445 3056,10445 3075,10445 3093,10445 3117,10445 3135,10445 3160,10445 3183,10445 3207,10445 3235,10445 3259,10445 3287,10445 3315,10445 3349,10445 3377,10445 3409,10445 3443,10445 3476,10445 3509,10445 3542,10445 3580,10445 3613,10445 3651,10445 3689,10445 3725,10445 3764,10445 3802,10445 3840,10445 3882,10445 3920,10445 3963,10445 3999,10445 4043,10445 4081,10445 4123,10445 4166,10445 4208,10445 4246,10445 4289,10445 4331,10445 4374,10445 4411,10445 4454,10445 4497,10445 4534,10445 4577,10445 4615,10445 4657,10445 4695,10445 4733,10445 4771,10445 4808,10445 4846,10445 4883,10445 4917,10445 4955,10445 4988,10445 5021,10445 5054,10445 5087,10445 5120,10445 5153,10445 5182,10445 5210,10445 5238,10445 5267,10445 5290,10445 5314,10445 5337,10445 5361,10445 5385,10445 5404,10445 5422,10445 5441,10445 5460,10445 5475,10445 5489,10445 5503,10445 5517,10445 5526,10445 5535,10445 5545,10445 5550,10445 5560,10445 5564,10445 5569,10445 "
       style="stroke:#000000;stroke-width:8;stroke-linecap:butt;stroke-linejoin:round"
       id="polyline90" />
    <!-- Line -->
    <!--  polyline  -->
    <!-- Line -->
    <!--  polyline  -->
    <polyline
       points="2714,7256 2720,7256 2725,7256 2734,7256 2739,7256 2753,7256 2763,7256 2777,7256 2791,7256 2805,7256 2824,7256 2843,7256 2862,7256 2881,7256 2904,7256 2928,7256 2956,7256 2980,7256 3008,7256 3037,7256 3070,7256 3098,7256 3131,7256 3164,7256 3202,7256 3235,7256 3273,7256 3311,7256 3349,7256 3391,7256 3429,7256 3471,7256 3514,7256 3556,7256 3598,7256 3641,7256 3689,7256 3731,7256 3778,7256 3826,7256 3872,7256 3920,7256 3967,7256 4015,7256 4062,7256 4109,7256 4156,7256 4204,7256 4256,7256 4303,7256 4350,7256 4397,7256 4445,7256 4497,7256 4544,7256 4591,7256 4638,7256 4681,7256 4728,7256 4775,7256 4818,7256 4865,7256 4908,7256 4950,7256 4993,7256 5035,7256 5078,7256 5114,7256 5158,7256 5196,7256 5234,7256 5271,7256 5304,7256 5342,7256 5375,7256 5408,7256 5437,7256 5470,7256 5498,7256 5526,7256 5550,7256 5574,7256 5597,7256 5620,7256 5645,7256 5662,7256 5682,7256 5697,7256 5715,7256 5730,7256 5739,7256 5753,7256 5763,7256 5772,7256 5777,7256 5782,7256 5786,7256 "
       style="stroke:#000000;stroke-width:8;stroke-linecap:butt;stroke-linejoin:round"
       id="polyline94" />
    <!-- Line -->
    <!--  polyline  -->
    <!-- Line -->
    <!--  polyline  -->
    <polyline
       points="2714,10638 2720,10638 2725,10638 2730,10638 2739,10638 2749,10638 2763,10638 2772,10638 2786,10643 2805,10643 2819,10643 2838,10643 2857,10643 2881,10643 2904,10643 2928,10643 2952,10643 2975,10643 3004,10643 3032,10643 3065,10643 3093,10643 3127,10643 3160,10643 3197,10643 3230,10643 3268,10643 3306,10643 3344,10643 3386,10643 3424,10643 3467,10643 3509,10643 3552,10643 3594,10643 3637,10643 3683,10643 3725,10643 3774,10643 3821,10643 3864,10643 3911,10643 3958,10643 4005,10643 4057,10643 4104,10643 4152,10643 4199,10643 4246,10643 4298,10643 4345,10643 4393,10643 4440,10643 4487,10643 4534,10643 4582,10643 4629,10643 4676,10643 4723,10643 4771,10643 4813,10643 4860,10643 4903,10643 4945,10643 4988,10643 5030,10643 5072,10643 5111,10643 5153,10643 5191,10643 5229,10643 5267,10643 5300,10643 5337,10643 5371,10643 5404,10643 5432,10643 5465,10643 5493,10643 5522,10643 5545,10643 5574,10643 5597,10643 5620,10643 5640,10643 5659,10643 5678,10643 5697,10643 5711,10643 5725,10638 5739,10638 5749,10638 5763,10638 5767,10638 5777,10638 5782,10638 5786,10638 "
       style="stroke:#000000;stroke-width:8;stroke-linecap:butt;stroke-linejoin:round"
       id="polyline98" />
    <!-- Line -->
    <!--  polyline  -->
    <!-- Line -->
    <!--  polyline  -->
    <!-- Line -->
    <!--  polyline  -->
    <!-- Line -->
    <polyline
       points="4251,6708 4251,11102 "
       style="stroke:#ff0000;stroke-width:8;stroke-linecap:butt;stroke-linejoin:miter;stroke-dasharray:62, 31, 10, 31"
       id="polyline106" />
    <!-- Line -->
    <!--  polyline  -->
    <g
       id="g4046"
       transform="translate(0,-5.4349611e-4)">
      <path
         style="fill:#ffffff;fill-opacity:0.77092513;stroke:none"
         d="m 18.249855,196.97604 c 40.8119,29.28429 84.228395,78.53711 120.826625,75.51664 53.87313,-2.9201 85.47933,-45.92067 125.23176,-74.25803 -40.88431,22.31999 -154.57979,35.10563 -246.058385,-1.25861 z"
         id="path4087"
         inkscape:connector-curvature="0"
         transform="matrix(13.369508,0,0,13.369508,6518.0838,4633.8315)"
         sodipodi:nodetypes="cccc" />
      <polyline
         transform="translate(0,-4.3496111e-6)"
         id="polyline12"
         style="stroke:#000000;stroke-width:8;stroke-linecap:butt;stroke-linejoin:round"
         points="7808,7549 7861,7553 7912,7558 7969,7563 8022,7563 8072,7568 8130,7568 8181,7572 8239,7572 8290,7572 8346,7577 8404,7577 8455,7577 8513,7572 8569,7572 8621,7572 8678,7568 8729,7568 8787,7563 8838,7563 8891,7558 8942,7553 8995,7549 9046,7544 9099,7539 9150,7535 9197,7525 9250,7520 9296,7511 9343,7506 9386,7497 9434,7487 9477,7483 9519,7472 9562,7464 9604,7454 9641,7445 9679,7435 9717,7421 9755,7412 9787,7402 9820,7388 9855,7379 9883,7364 9916,7355 9940,7341 9967,7327 9991,7317 10014,7303 10033,7289 10052,7275 10072,7265 10091,7251 10104,7237 10118,7223 10129,7209 10137,7194 10146,7180 10152,7166 10156,7152 10161,7138 10161,7123 10161,7109 10156,7095 10152,7081 10146,7067 10137,7053 10129,7038 10118,7024 10104,7009 10091,6996 10076,6982 10057,6967 10038,6958 10019,6944 9995,6930 9972,6916 9948,6906 9921,6892 9891,6878 9859,6868 9830,6854 9798,6845 9764,6835 9727,6820 9689,6812 9651,6802 9613,6793 9570,6783 9528,6774 9485,6764 9443,6755 9396,6746 9354,6741 9307,6731 9258,6727 9207,6717 9160,6712 9107,6708 9061,6703 9008,6693 8956,6689 8904,6689 8848,6684 8795,6679 8744,6675 8687,6675 8636,6670 8578,6670 8527,6670 8470,6670 8413,6670 8362,6670 8304,6670 8247,6670 8196,6670 8139,6675 8088,6675 8030,6679 7979,6684 7926,6684 7875,6689 7822,6693 7771,6698 7718,6703 7667,6712 7619,6717 7567,6722 7521,6731 7472,6735 7430,6746 7383,6755 7340,6764 7298,6769 7255,6779 7213,6788 7175,6802 7138,6812 7100,6820 7062,6831 7028,6845 6996,6854 6962,6864 6935,6878 6901,6887 6877,6901 6850,6916 6826,6925 6803,6939 6784,6953 6765,6967 6746,6982 6726,6996 6712,7005 6699,7020 6688,7034 6680,7048 6669,7062 6665,7076 6661,7090 6656,7105 6656,7119 6656,7133 6661,7147 6665,7161 6669,7176 6680,7190 6688,7204 6699,7218 6712,7232 6726,7246 6741,7261 6760,7275 6779,7289 6797,7298 6822,7312 6845,7327 6869,7341 6896,7350 6924,7364 6957,7374 6986,7388 7020,7398 7053,7412 7090,7421 7128,7430 7166,7440 7204,7449 7247,7459 7289,7468 7332,7478 7374,7487 7421,7497 7463,7501 7510,7511 7558,7520 7610,7525 7657,7530 7710,7539 7756,7544 7808,7549 " />
      <polyline
         id="polyline28"
         style="stroke:#000000;stroke-width:8;stroke-linecap:butt;stroke-linejoin:round"
         points="10086,7251 9995,7327 9910,7402 9830,7468 9755,7535 9679,7596 9609,7653 9538,7704 9471,7757 9409,7804 9349,7851 9292,7893 9235,7931 9184,7969 9131,8002 9083,8035 9037,8068 8990,8097 8942,8120 8899,8144 8857,8167 8814,8187 8776,8205 8734,8220 8697,8234 8659,8248 8621,8257 8583,8267 8551,8276 8513,8281 8474,8286 8441,8286 8404,8286 8370,8286 8332,8286 8300,8281 8262,8276 8228,8267 8192,8257 8154,8248 8115,8234 8077,8220 8035,8201 7997,8182 7954,8163 7912,8144 7869,8116 7822,8092 7776,8064 7729,8031 7676,7998 7625,7964 7572,7927 7516,7889 7459,7842 7398,7799 7335,7752 7270,7700 7198,7643 7128,7587 7053,7525 6977,7459 6892,7393 6807,7317 6731,7251 " />
      <polyline
         id="polyline30"
         style="stroke:#000000;stroke-width:8;stroke-linecap:butt;stroke-linejoin:round"
         points="7808,7549 7841,7605 7869,7662 7899,7719 7926,7766 7954,7813 7979,7861 8003,7903 8026,7941 8050,7979 8069,8012 8092,8045 8111,8073 8130,8101 8149,8125 8162,8149 8181,8172 8196,8191 8215,8205 8228,8224 8243,8238 8258,8248 8271,8257 8285,8267 8300,8276 8313,8281 8324,8281 " />
      <polyline
         id="polyline36"
         style="stroke:#000000;stroke-width:8;stroke-linecap:butt;stroke-linejoin:round"
         points="8710,7568 8697,7629 8683,7681 8668,7733 8655,7785 8640,7832 8625,7875 8617,7917 8602,7955 8593,7988 8578,8020 8569,8054 8559,8083 8551,8111 8540,8135 8532,8158 8521,8177 8517,8196 8508,8215 8498,8229 8493,8243 8483,8253 8479,8262 8470,8272 8466,8276 8455,8281 8451,8286 8447,8286 " />
      <polyline
         id="polyline44"
         style="stroke:#000000;stroke-width:8;stroke-linecap:butt;stroke-linejoin:round"
         points="9532,7468 9477,7535 9420,7596 9362,7653 9311,7704 9264,7757 9216,7804 9168,7846 9126,7889 9083,7931 9046,7969 9008,8002 8971,8035 8933,8064 8899,8092 8867,8116 8833,8139 8806,8163 8776,8182 8748,8201 8721,8215 8691,8229 8663,8238 8640,8253 8612,8257 8587,8267 " />
      <polyline
         id="polyline52"
         style="stroke:#000000;stroke-width:8;stroke-linecap:butt;stroke-linejoin:round"
         points="10052,7275 9967,7350 9887,7421 9806,7487 9732,7549 9655,7610 9589,7667 9524,7719 9458,7766 9396,7813 9339,7861 9282,7898 " />
      <polyline
         id="polyline68"
         style="stroke:#000000;stroke-width:8;stroke-linecap:butt;stroke-linejoin:round"
         points="7899,8135 7907,8139 7918,8144 7926,8149 7935,8153 7946,8153 7954,8158 7965,8163 7973,8167 7988,8167 7997,8172 8011,8177 8026,8177 8039,8182 8050,8187 8064,8187 8077,8191 8092,8191 8111,8196 8124,8201 8139,8201 8154,8201 8173,8205 8186,8205 8205,8209 8220,8209 8239,8209 8253,8215 8271,8215 8290,8215 8304,8215 8324,8215 8343,8220 8356,8220 8375,8220 8394,8220 8413,8220 8428,8220 8447,8220 8466,8220 8483,8215 8498,8215 8517,8215 8535,8215 8551,8215 8569,8209 8583,8209 8602,8209 8617,8209 8636,8205 8649,8205 8668,8201 8683,8201 8697,8196 8710,8196 8729,8191 8744,8191 8758,8187 8772,8187 8782,8182 8795,8177 8809,8177 8819,8172 8833,8167 8844,8163 8857,8163 8867,8158 8876,8153 8886,8149 8894,8144 8904,8144 8914,8139 8918,8135 " />
      <polyline
         id="polyline76"
         style="stroke:#000000;stroke-width:8;stroke-linecap:butt;stroke-linejoin:round"
         points="7619,7960 7629,7964 7638,7969 7648,7979 7661,7983 7672,7988 7686,7998 7699,8002 7714,8007 7733,8012 7746,8016 7765,8026 7780,8031 7799,8035 7818,8040 7837,8045 7856,8049 7880,8054 7899,8059 7922,8059 7941,8064 7965,8068 7988,8073 8011,8073 8035,8078 8058,8083 8082,8083 8107,8087 8130,8087 8157,8092 8181,8092 8209,8097 8234,8097 8262,8097 8285,8097 8313,8101 8338,8101 8366,8101 8389,8101 8417,8101 8447,8101 8470,8101 8498,8101 8521,8097 8551,8097 8578,8097 8602,8097 8625,8092 8655,8092 8678,8087 8706,8087 8729,8083 8753,8083 8776,8078 8801,8078 8825,8073 8848,8068 8872,8064 8891,8064 8914,8059 8933,8054 8956,8049 8976,8045 8995,8040 9014,8035 9033,8031 9046,8026 9065,8020 9083,8016 9099,8007 9112,8002 9126,7998 9141,7993 9154,7983 9165,7979 9179,7974 9188,7964 9197,7960 " />
      <polyline
         id="polyline86"
         style="stroke:#000000;stroke-width:8;stroke-linecap:butt;stroke-linejoin:round"
         points="7378,7780 7387,7790 7402,7799 7417,7809 7430,7813 7444,7823 7459,7832 7478,7837 7497,7846 7516,7851 7534,7861 7553,7865 7576,7875 7601,7879 7625,7889 7648,7893 7672,7898 7699,7908 7723,7912 7752,7917 7780,7922 7808,7927 7837,7931 7865,7935 7893,7941 7926,7946 7954,7950 7988,7950 8022,7955 8050,7960 8082,7960 8115,7964 8149,7964 8181,7969 8215,7969 8253,7969 8285,7974 8319,7974 8351,7974 8385,7974 8423,7974 8455,7974 8489,7974 8521,7974 8555,7969 8593,7969 8625,7969 8659,7964 8691,7964 8725,7960 8758,7960 8791,7955 8819,7955 8852,7950 8880,7946 8914,7941 8942,7935 8976,7931 9003,7927 9033,7922 9061,7917 9083,7912 9112,7908 9135,7903 9165,7893 9188,7889 9211,7884 9235,7875 9254,7870 9277,7861 9296,7856 9315,7846 9335,7842 9354,7832 9367,7827 9386,7818 9400,7809 9415,7799 9424,7794 9439,7780 " />
      <polyline
         id="polyline96"
         style="stroke:#000000;stroke-width:8;stroke-linecap:butt;stroke-linejoin:round"
         points="7151,7605 7166,7615 7181,7624 7194,7634 7213,7648 7232,7657 7251,7667 7270,7676 7293,7681 7317,7690 7340,7700 7364,7709 7387,7719 7417,7728 7444,7733 7472,7742 7502,7746 7534,7757 7563,7766 7595,7771 7629,7776 7661,7785 7695,7790 7733,7794 7765,7799 7803,7804 7841,7809 7880,7813 7918,7818 7954,7823 7992,7827 8035,7827 8072,7832 8115,7832 8154,7837 8196,7837 8239,7842 8277,7842 8319,7842 8362,7842 8404,7842 8441,7842 8483,7842 8527,7842 8569,7842 8606,7837 8649,7837 8687,7837 8729,7832 8767,7832 8809,7827 8848,7823 8886,7818 8923,7818 8961,7813 8999,7809 9037,7804 9075,7794 9107,7790 9146,7785 9179,7780 9211,7771 9245,7766 9272,7761 9307,7752 9335,7742 9362,7738 9392,7728 9420,7719 9447,7714 9471,7704 9495,7695 9519,7686 9538,7676 9562,7667 9580,7657 9598,7648 9613,7638 9632,7629 9647,7620 9666,7605 " />
      <polyline
         id="polyline102"
         style="stroke:#000000;stroke-width:8;stroke-linecap:butt;stroke-linejoin:round"
         points="6939,7430 6954,7440 6973,7454 6986,7464 7011,7478 7028,7487 7053,7497 7071,7511 7100,7520 7124,7530 7151,7539 7181,7553 7209,7563 7241,7572 7274,7582 7308,7591 7340,7596 7374,7605 7412,7615 7449,7624 7487,7629 7525,7638 7567,7643 7606,7653 7648,7657 7691,7662 7733,7672 7776,7676 7822,7681 7865,7686 7912,7690 7960,7690 8003,7695 8050,7700 8096,7700 8143,7704 8192,7704 8243,7709 8290,7709 8338,7709 8385,7709 8432,7709 8483,7709 8532,7709 8578,7709 8625,7704 8672,7704 8721,7700 8767,7700 8814,7695 8861,7690 8910,7690 8952,7686 8999,7681 9041,7676 9083,7667 9131,7662 9173,7657 9211,7653 9254,7643 9292,7638 9335,7629 9373,7624 9409,7615 9443,7605 9481,7596 9513,7587 9546,7577 9580,7572 9609,7558 9636,7549 9666,7539 9693,7530 9721,7520 9745,7511 9769,7497 9787,7487 9812,7472 9830,7464 9849,7454 9863,7440 9878,7430 " />
      <polyline
         id="polyline108"
         style="stroke:#ff0000;stroke-width:16;stroke-linecap:butt;stroke-linejoin:round"
         points="8149,8243 8157,8248 8115,8234 8088,8220 8054,8205 8022,8191 7988,8172 7954,8153 7918,8130 7880,8106 7841,8078 7799,8049 7761,8020 7714,7988 7672,7955 7625,7917 7576,7875 7525,7832 7472,7785 7417,7738 7359,7686 7298,7629 7236,7572 7170,7511 7066,7412 " />
    </g>
    <!-- Line -->
    <!--  polyline  -->
    <g
       id="g4061"
       transform="matrix(-1,0,0,1,16817,-2941.291)">
      <polyline
         transform="matrix(1,0,0,-1,0,20833)"
         id="polyline8"
         style="stroke:#000000;stroke-width:8;stroke-linecap:butt;stroke-linejoin:round"
         points="6731,10643 6718,10657 6703,10667 6693,10681 6680,10695 6675,10709 6665,10723 6661,10738 6661,10752 6656,10766 6656,10780 6661,10794 6661,10809 6669,10823 6675,10837 6684,10851 6693,10865 6707,10879 6722,10894 6735,10908 6754,10922 6773,10936 6792,10950 6816,10960 6839,10974 6864,10988 6892,10997 6920,11012 6949,11021 6981,11035 7015,11045 7047,11059 7081,11068 7119,11078 7156,11092 7194,11101 7236,11111 7279,11120 7321,11130 7364,11134 7406,11144 7455,11153 7502,11158 7548,11168 7595,11172 7648,11182 7695,11186 7746,11191 7799,11196 7850,11201 7903,11205 7954,11210 8007,11215 8064,11215 8115,11220 8173,11220 8224,11224 8281,11224 8332,11224 8389,11224 8447,11224 8498,11224 8555,11224 8612,11224 8663,11220 8721,11220 8772,11215 8825,11215 8880,11210 8933,11205 8984,11201 9037,11196 9088,11191 9135,11186 9188,11177 9235,11172 9282,11163 9330,11158 9377,11149 9424,11144 9466,11134 9509,11125 9551,11116 9594,11106 9632,11097 9674,11087 9713,11078 9745,11064 9783,11054 9817,11045 9844,11030 9878,11021 9906,11007 9934,10993 9963,10983 9987,10969 10009,10955 10029,10945 10052,10931 10067,10917 10086,10903 10099,10889 10114,10875 10123,10860 10137,10846 10142,10832 10152,10818 10156,10804 10156,10790 10161,10775 10161,10761 10156,10747 10156,10733 10146,10719 10142,10705 10133,10690 10123,10676 10110,10662 10094,10653 10086,10643 " />
      <polyline
         transform="matrix(1,0,0,-1,0,20833)"
         id="polyline24"
         style="stroke:#000000;stroke-width:8;stroke-linecap:butt;stroke-linejoin:round"
         points="10086,10643 9995,10567 9910,10492 9830,10426 9755,10360 9679,10298 9609,10242 9538,10190 9471,10138 9409,10090 9349,10043 9292,10001 9235,9963 9184,9925 9131,9892 9083,9859 9037,9826 8990,9798 8942,9774 8899,9750 8857,9727 8814,9708 8776,9689 8734,9675 8697,9660 8659,9646 8621,9637 8583,9627 8551,9618 8513,9613 8474,9609 8441,9609 8404,9609 8370,9609 8332,9609 8300,9613 8262,9618 8228,9627 8192,9637 8154,9646 8115,9660 8077,9675 8035,9694 7997,9712 7954,9731 7912,9750 7869,9779 7822,9802 7776,9830 7729,9864 7676,9897 7625,9930 7572,9968 7516,10005 7459,10053 7398,10095 7335,10142 7270,10194 7198,10251 7128,10308 7053,10369 6977,10435 6892,10501 6807,10577 6731,10643 " />
      <polyline
         transform="matrix(1,0,0,-1,0,20833)"
         id="polyline32"
         style="stroke:#000000;stroke-width:8;stroke-linecap:butt;stroke-linejoin:round"
         points="7808,11201 7841,11092 7869,10993 7899,10898 7926,10809 7954,10723 7979,10643 8003,10567 8026,10497 8050,10431 8069,10364 8092,10303 8111,10246 8130,10190 8149,10142 8162,10090 8181,10048 8196,10005 8215,9963 8228,9925 8243,9892 8258,9859 8271,9830 8285,9802 8300,9774 8313,9750 8324,9731 8338,9708 8351,9694 8362,9675 8375,9660 8389,9651 8398,9637 8413,9627 8423,9623 8436,9618 8447,9613 8460,9609 8474,9609 " />
      <polyline
         transform="matrix(1,0,0,-1,0,20833)"
         id="polyline40"
         style="stroke:#000000;stroke-width:8;stroke-linecap:butt;stroke-linejoin:round"
         points="8710,11220 8697,11111 8683,11012 8668,10917 8655,10827 8640,10742 8625,10662 8617,10582 8602,10511 8593,10440 8578,10374 8569,10312 8559,10256 8551,10204 8540,10152 8532,10100 8521,10057 8517,10010 8508,9972 8498,9934 8493,9897 8483,9864 8479,9835 8470,9807 8466,9779 8455,9755 8451,9731 8447,9712 8436,9694 8432,9679 8428,9660 8417,9651 8413,9637 8409,9627 8398,9623 8394,9613 8389,9613 8381,9609 8375,9609 " />
      <polyline
         transform="matrix(1,0,0,-1,0,20833)"
         id="polyline48"
         style="stroke:#000000;stroke-width:8;stroke-linecap:butt;stroke-linejoin:round"
         points="9532,11120 9477,11021 9420,10922 9362,10832 9311,10747 9264,10667 9216,10591 9168,10516 9126,10445 9083,10383 9046,10322 9008,10260 8971,10209 8933,10157 8899,10104 8867,10062 8833,10020 8806,9977 8776,9939 8748,9901 8721,9872 8691,9840 8663,9812 8640,9783 8612,9760 8587,9741 8564,9717 8540,9703 8517,9683 8493,9670 8470,9656 8447,9646 8428,9637 8404,9632 8381,9623 8356,9618 8332,9618 8309,9618 8285,9618 8262,9623 8239,9627 " />
      <polyline
         transform="matrix(1,0,0,-1,0,20833)"
         id="polyline56"
         style="stroke:#000000;stroke-width:8;stroke-linecap:butt;stroke-linejoin:round"
         points="10052,10927 9967,10837 9887,10752 9806,10671 9732,10591 9655,10520 9589,10449 9524,10388 9458,10327 9396,10265 9339,10213 9282,10161 9230,10109 9179,10067 9126,10024 9080,9982 9033,9944 8990,9911 8946,9878 8904,9845 8861,9816 8825,9793 8782,9769 8744,9745 8710,9727 8672,9708 8636,9694 8602,9679 8569,9665 8532,9656 8498,9646 8466,9641 8432,9632 8398,9632 8366,9627 8332,9627 8300,9632 8266,9632 8228,9637 8196,9646 8162,9656 8124,9665 8088,9675 8050,9689 8011,9708 7973,9722 7935,9741 7893,9764 7850,9788 7803,9812 7761,9840 7714,9872 7661,9906 7610,9939 " />
      <polyline
         transform="matrix(1,0,0,-1,0,20833)"
         id="polyline60"
         style="stroke:#000000;stroke-width:8;stroke-linecap:butt;stroke-linejoin:round"
         points="10133,10695 10044,10615 9958,10539 9872,10473 9793,10407 9717,10341 9647,10284 9575,10227 9509,10175 9443,10123 9386,10081 9324,10034 9269,9996 9216,9958 9165,9920 9112,9887 9065,9854 9018,9826 8971,9802 8929,9774 8886,9755 8844,9731 8801,9712 8763,9698 8725,9683 8687,9670 8649,9660 8612,9651 8574,9641 8540,9637 8502,9632 8470,9632 8432,9632 8398,9632 8366,9637 8328,9641 8296,9646 8258,9656 8224,9665 8186,9675 8149,9689 8111,9703 8072,9722 8035,9741 7992,9760 7954,9783 7912,9812 7865,9840 7822,9868 7776,9901 7729,9934 7680,9972 7629,10010 7572,10053 7521,10095 7459,10142 7402,10194 7335,10251 7274,10308 7204,10364 7132,10431 7058,10497 6981,10567 6901,10648 6816,10723 6684,10851 " />
      <polyline
         transform="matrix(1,0,0,-1,0,20833)"
         id="polyline72"
         style="stroke:#000000;stroke-width:8;stroke-linecap:butt;stroke-linejoin:round"
         points="7899,9760 7893,9764 7883,9769 7880,9774 7875,9774 7869,9779 7865,9783 7861,9788 7856,9793 7850,9798 7850,9802 7846,9807 7846,9812 7846,9816 7846,9821 7846,9826 7846,9830 7846,9835 7850,9840 7850,9845 7856,9849 7856,9854 7861,9859 7865,9864 7869,9868 7880,9868 7883,9872 7888,9878 7899,9883 7903,9887 7912,9892 7922,9897 7931,9901 7941,9901 7950,9906 7960,9911 7973,9916 7984,9916 7997,9920 8007,9925 8022,9930 8035,9930 8045,9934 8058,9934 8072,9939 8088,9944 8107,9944 8120,9949 8135,9949 8149,9953 8167,9953 8181,9953 8200,9958 8215,9958 8234,9958 8247,9963 8266,9963 8281,9963 8300,9963 8319,9968 8332,9968 8351,9968 8370,9968 8389,9968 8404,9968 8423,9968 8441,9968 8460,9968 8474,9968 8493,9968 8513,9963 8527,9963 8545,9963 8564,9963 8578,9963 8598,9958 8612,9958 8630,9958 8644,9953 8663,9953 8678,9949 8691,9949 8706,9944 8725,9944 8740,9939 8753,9939 8767,9934 8776,9930 8791,9930 8806,9925 8819,9920 8829,9920 8844,9916 8852,9911 8861,9906 8872,9906 8880,9901 8891,9897 8899,9892 8910,9887 8918,9883 8923,9883 8933,9878 8937,9872 8942,9868 8946,9864 8952,9859 8956,9854 8961,9849 8965,9845 8965,9840 8971,9835 8971,9830 8971,9826 8971,9821 8971,9816 8971,9812 8971,9807 8965,9802 8965,9798 8961,9798 8961,9793 8956,9788 8952,9783 8946,9779 8937,9774 8933,9769 8929,9764 8918,9760 " />
      <polyline
         transform="matrix(1,0,0,-1,0,20833)"
         id="polyline82"
         style="stroke:#000000;stroke-width:8;stroke-linecap:butt;stroke-linejoin:round"
         points="7619,9934 7610,9944 7601,9949 7591,9953 7587,9963 7582,9968 7576,9977 7572,9982 7567,9986 7567,9996 7563,10001 7563,10010 7563,10015 7567,10024 7567,10029 7567,10038 7572,10043 7576,10053 7582,10057 7587,10062 7595,10071 7601,10076 7610,10086 7619,10090 7629,10095 7638,10104 7652,10109 7661,10114 7676,10119 7691,10128 7704,10133 7718,10138 7733,10142 7752,10146 7771,10157 7784,10161 7803,10166 7822,10171 7841,10175 7861,10180 7883,10185 7903,10185 7926,10190 7946,10194 7969,10199 7992,10204 8016,10204 8039,10209 8064,10213 8088,10213 8111,10218 8139,10218 8162,10223 8192,10223 8215,10223 8239,10227 8266,10227 8296,10227 8319,10227 8346,10232 8370,10232 8398,10232 8428,10232 8451,10232 8479,10227 8502,10227 8532,10227 8555,10227 8583,10227 8606,10223 8636,10223 8659,10223 8687,10218 8710,10218 8734,10213 8758,10209 8782,10209 8806,10204 8829,10199 8852,10199 8876,10194 8894,10190 8918,10185 8937,10180 8961,10175 8980,10171 8999,10166 9018,10161 9037,10157 9050,10152 9069,10146 9083,10142 9103,10138 9118,10133 9131,10123 9146,10119 9154,10114 9168,10109 9179,10100 9188,10095 9197,10090 9207,10081 9216,10076 9226,10067 9230,10062 9235,10057 9239,10048 9245,10043 9250,10034 9250,10029 9254,10020 9254,10015 9254,10005 9250,10001 9250,9996 9250,9986 9245,9982 9239,9972 9235,9968 9230,9958 9220,9953 9216,9949 9207,9939 9197,9934 " />
      <polyline
         transform="matrix(1,0,0,-1,0,20833)"
         id="polyline92"
         style="stroke:#000000;stroke-width:8;stroke-linecap:butt;stroke-linejoin:round"
         points="7378,10114 7364,10119 7355,10128 7351,10138 7340,10146 7335,10157 7332,10161 7327,10171 7321,10180 7321,10190 7321,10199 7321,10209 7321,10218 7321,10227 7327,10232 7332,10242 7335,10251 7345,10260 7351,10270 7359,10279 7370,10284 7378,10293 7393,10303 7402,10312 7417,10317 7430,10327 7449,10335 7463,10341 7483,10350 7502,10360 7521,10364 7540,10374 7563,10379 7582,10388 7606,10393 7629,10398 7652,10407 7680,10412 7704,10416 7733,10420 7756,10426 7784,10435 7814,10440 7841,10445 7875,10449 7903,10449 7935,10454 7965,10459 7997,10464 8026,10468 8058,10468 8092,10473 8124,10473 8157,10478 8192,10478 8224,10478 8262,10483 8296,10483 8328,10483 8362,10483 8394,10483 8432,10483 8466,10483 8498,10483 8532,10483 8564,10483 8602,10478 8636,10478 8668,10478 8702,10473 8734,10473 8767,10468 8795,10464 8829,10464 8861,10459 8891,10454 8923,10449 8952,10445 8980,10440 9008,10435 9037,10431 9065,10426 9093,10420 9118,10416 9146,10412 9168,10402 9192,10398 9216,10393 9239,10383 9264,10379 9282,10369 9301,10364 9320,10355 9339,10350 9357,10341 9373,10331 9386,10327 9400,10317 9415,10308 9428,10298 9439,10293 9453,10284 9462,10275 9466,10265 9477,10256 9481,10251 9485,10242 9490,10232 9495,10223 9495,10213 9495,10204 9495,10194 9495,10190 9495,10180 9490,10171 9485,10161 9481,10152 9471,10142 9466,10133 9458,10128 9447,10119 9439,10114 " />
      <polyline
         transform="matrix(1,0,0,-1,0,20833)"
         id="polyline100"
         style="stroke:#000000;stroke-width:8;stroke-linecap:butt;stroke-linejoin:round"
         points="7151,10289 7143,10298 7132,10308 7124,10317 7113,10331 7104,10341 7100,10350 7096,10360 7096,10374 7090,10383 7090,10393 7090,10407 7096,10416 7096,10426 7100,10435 7109,10449 7113,10459 7124,10468 7132,10478 7146,10487 7156,10501 7170,10511 7185,10520 7204,10530 7217,10539 7236,10549 7255,10558 7279,10567 7298,10577 7321,10586 7345,10596 7370,10601 7398,10609 7425,10620 7455,10629 7483,10634 7510,10643 7544,10648 7572,10657 7606,10662 7638,10667 7672,10676 7710,10681 7742,10686 7780,10690 7818,10695 7856,10700 7893,10705 7931,10709 7969,10714 8007,10719 8050,10719 8088,10723 8130,10723 8167,10728 8209,10728 8247,10733 8290,10733 8332,10733 8375,10733 8413,10733 8455,10733 8498,10733 8540,10733 8578,10728 8621,10728 8663,10728 8702,10723 8744,10723 8782,10719 8825,10714 8861,10714 8899,10709 8937,10705 8976,10700 9014,10695 9050,10690 9083,10686 9122,10681 9154,10671 9188,10667 9220,10662 9254,10653 9282,10648 9315,10638 9343,10634 9373,10624 9400,10615 9428,10609 9453,10601 9477,10591 9500,10582 9524,10572 9546,10563 9566,10553 9585,10544 9604,10534 9623,10525 9636,10516 9651,10506 9666,10497 9674,10487 9683,10473 9693,10464 9702,10454 9713,10445 9717,10435 9721,10420 9721,10412 9727,10402 9727,10393 9727,10379 9721,10369 9721,10360 9717,10345 9708,10335 9702,10327 9693,10317 9683,10308 9670,10293 9666,10289 " />
      <polyline
         transform="matrix(1,0,0,-1,0,20833)"
         id="polyline104"
         style="stroke:#000000;stroke-width:8;stroke-linecap:butt;stroke-linejoin:round"
         points="6939,10464 6924,10478 6915,10487 6901,10501 6892,10516 6888,10525 6882,10539 6877,10549 6872,10563 6872,10577 6872,10586 6872,10601 6877,10615 6882,10624 6888,10638 6892,10653 6901,10662 6911,10676 6924,10686 6939,10700 6954,10709 6967,10723 6986,10733 7005,10747 7028,10756 7047,10766 7071,10780 7096,10790 7124,10798 7151,10809 7181,10823 7209,10832 7236,10841 7270,10851 7302,10860 7335,10870 7374,10875 7406,10883 7444,10894 7483,10898 7525,10908 7563,10912 7606,10922 7644,10927 7686,10936 7733,10941 7776,10945 7818,10950 7865,10955 7907,10960 7954,10964 8003,10964 8050,10969 8096,10974 8143,10974 8192,10974 8239,10979 8285,10979 8332,10979 8385,10979 8432,10979 8479,10979 8527,10979 8574,10979 8625,10979 8672,10974 8721,10974 8767,10969 8814,10964 8857,10964 8904,10960 8952,10955 8995,10950 9041,10945 9083,10941 9126,10936 9168,10927 9211,10922 9250,10917 9292,10908 9330,10903 9367,10894 9405,10883 9443,10875 9477,10870 9509,10860 9543,10851 9575,10841 9609,10832 9636,10823 9666,10813 9693,10798 9717,10790 9745,10780 9764,10771 9787,10756 9806,10747 9830,10733 9844,10723 9863,10709 9878,10700 9891,10686 9902,10676 9916,10662 9925,10653 9929,10638 9934,10624 9940,10615 9944,10601 9944,10591 9944,10577 9944,10563 9940,10553 9934,10539 9929,10525 9925,10516 9916,10501 9906,10492 9891,10478 9878,10464 " />
      <polyline
         transform="matrix(1,0,0,-1,0,20833)"
         id="polyline110"
         style="stroke:#ff0000;stroke-width:16;stroke-linecap:butt;stroke-linejoin:round"
         points="8655,9646 8659,9646 8625,9637 8593,9632 8564,9627 8535,9623 8513,9623 8483,9623 8455,9623 8428,9627 8398,9632 8375,9641 8346,9651 8319,9660 8290,9675 8262,9689 8234,9703 8205,9722 8177,9741 8149,9764 8115,9788 8088,9812 8054,9840 8022,9872 7988,9906 7954,9939 7918,9977 7880,10020 7841,10062 7799,10104 7761,10157 7714,10209 7672,10260 7625,10322 7576,10383 7525,10445 7472,10516 7417,10586 7359,10667 7298,10747 7236,10832 7170,10922 7066,11064 " />
    </g>
    <!-- Line: box -->
    <rect
       x="2125"
       y="6377"
       width="8503"
       height="5149"
       rx="0"
       style="stroke:#000000;stroke-width:8;stroke-linecap:butt;stroke-linejoin:miter"
       id="rect112" />
    <!-- Line -->
    <!--  polyline  -->
    <polyline
       points="4251,10841 4251,10756 4251,10671 4251,10596 4251,10525 4251,10454 4251,10393 4251,10331 4251,10275 4251,10218 4251,10166 4251,10119 4251,10071 4251,10029 4251,9991 4251,9953 4251,9920 4251,9887 4251,9859 4251,9830 4251,9807 4251,9783 4251,9760 4251,9741 4251,9727 4251,9708 4251,9698 4251,9683 4251,9675 4251,9670 4251,9660 4251,9656 "
       style="stroke:#000000;stroke-width:8;stroke-linecap:butt;stroke-linejoin:round"
       id="polyline114" />
    <!-- Line -->
    <!--  polyline  -->
    <polyline
       points="4251,7062 4251,7147 4251,7227 4251,7303 4251,7374 4251,7445 4251,7506 4251,7568 4251,7624 4251,7681 4251,7733 4251,7780 4251,7823 4251,7865 4251,7908 4251,7941 4251,7979 4251,8007 4251,8040 4251,8064 4251,8092 4251,8116 4251,8135 4251,8153 4251,8172 4251,8187 4251,8201 4251,8209 4251,8220 4251,8224 4251,8234 4251,8238 "
       style="stroke:#000000;stroke-width:8;stroke-linecap:butt;stroke-linejoin:round"
       id="polyline116" />
    <path
       style="fill:none;stroke:#000000;stroke-width:0.99999996;stroke-linecap:butt;stroke-linejoin:miter;stroke-opacity:1;stroke-miterlimit:4;stroke-dasharray:0.99999996,0.99999996;stroke-dashoffset:0"
       d="M 48.024155,0.88152853 C 60.444195,23.651602 60.444195,23.651602 60.444195,23.651602"
       id="path4093"
       inkscape:connector-curvature="0"
       transform="matrix(13.369509,0,0,13.369509,6518.3047,6530.0109)" />
    <path
       style="fill:none;stroke:#000000;stroke-width:0.99999996;stroke-linecap:butt;stroke-linejoin:miter;stroke-opacity:1;stroke-miterlimit:4;stroke-dasharray:0.99999996,1.99999993;stroke-dashoffset:0"
       d="M -0.41400134,12.887567 19.872064,34.829638"
       id="path4095"
       inkscape:connector-curvature="0"
       transform="matrix(13.369509,0,0,13.369509,6518.3047,6530.0109)" />
    <path
       style="fill:none;stroke:#000000;stroke-width:0.99999996;stroke-linecap:butt;stroke-linejoin:miter;stroke-opacity:1;stroke-miterlimit:4;stroke-dasharray:0.99999996,1.99999993;stroke-dashoffset:0"
       d="m 118.40438,10.403559 -1.242,-9.93603181 0,0"
       id="path4097"
       inkscape:connector-curvature="0"
       transform="matrix(13.369509,0,0,13.369509,6518.3047,6530.0109)" />
    <path
       style="fill:none;stroke:#000000;stroke-width:0.99999996;stroke-linecap:butt;stroke-linejoin:miter;stroke-opacity:1;stroke-miterlimit:4;stroke-dasharray:0.99999996,1.99999993;stroke-dashoffset:0"
       d="m 185.8866,12.059565 c 4.14001,-11.59203781 3.72601,-11.59203781 3.72601,-11.59203781 l 0,0"
       id="path4099"
       inkscape:connector-curvature="0"
       transform="matrix(13.369509,0,0,13.369509,6518.3047,6530.0109)" />
    <path
       style="fill:#ff0000;stroke:#ff0000;stroke-width:0.99999996000000002;stroke-linecap:butt;stroke-linejoin:miter;stroke-opacity:1;stroke-miterlimit:4;stroke-dasharray:0.99999996000000002, 1.99999992999999998;stroke-dashoffset:0"
       d="M 241.36278,22.409598 259.16484,0.05352585"
       id="path4101"
       inkscape:connector-curvature="0"
       transform="matrix(13.369509,0,0,13.369509,6518.3047,6530.0109)" />
    <path
       style="fill:none;stroke:#000000;stroke-width:0.99999996;stroke-linecap:butt;stroke-linejoin:miter;stroke-opacity:1;stroke-miterlimit:4;stroke-dasharray:0.99999996,1.99999993;stroke-dashoffset:0"
       d="M 270.75687,38.141649 C 282.76291,26.963613 282.76291,26.963613 282.76291,26.963613"
       id="path4103"
       inkscape:connector-curvature="0"
       transform="matrix(13.369509,0,0,13.369509,6518.3047,6530.0109)" />
    <path
       style="fill:none;stroke:#000000;stroke-width:0.99999996;stroke-linecap:butt;stroke-linejoin:miter;stroke-opacity:1;stroke-miterlimit:4;stroke-dasharray:0.99999996,1.99999993;stroke-dashoffset:0"
       d="M 14.490047,52.631696 -0.41400134,38.55565"
       id="path4105"
       inkscape:connector-curvature="0"
       transform="matrix(13.369509,0,0,13.369509,6518.3047,6530.0109)" />
    <path
       style="fill:none;stroke:#000000;stroke-width:0.99999996;stroke-linecap:butt;stroke-linejoin:miter;stroke-opacity:1;stroke-miterlimit:4;stroke-dasharray:0.99999996,2.99999989;stroke-dashoffset:0"
       d="M 96.876313,76.643773 59.202191,0.46752719"
       id="path4107"
       inkscape:connector-curvature="0"
       transform="matrix(13.369509,0,0,13.369509,6518.3047,6530.0109)" />
    <path
       style="fill:none;stroke:#000000;stroke-width:0.99999996;stroke-linecap:butt;stroke-linejoin:miter;stroke-opacity:1;stroke-miterlimit:4;stroke-dasharray:0.99999996,1.99999993;stroke-dashoffset:0"
       d="M 163.53053,77.471776 183.81659,0.05352585"
       id="path4109"
       inkscape:connector-curvature="0"
       transform="matrix(13.369509,0,0,13.369509,6518.3047,6530.0109)" />
    <path
       style="fill:none;stroke:#000000;stroke-width:0.99999996;stroke-linecap:butt;stroke-linejoin:miter;stroke-opacity:1;stroke-miterlimit:4;stroke-dasharray:0.99999996,1.99999993;stroke-dashoffset:0"
       d="M 282.34891,2.9515352 C 224.80273,70.433753 224.80273,70.433753 224.80273,70.433753"
       id="path4111"
       inkscape:connector-curvature="0"
       transform="matrix(13.369509,0,0,13.369509,6518.3047,6530.0109)" />
    <path
       style="fill:#ff0000;stroke:#ff0000;stroke-width:0.99999996;stroke-linecap:butt;stroke-linejoin:miter;stroke-opacity:1;marker-start:none;stroke-miterlimit:4;stroke-dasharray:0.99999996,1.99999993;stroke-dashoffset:0"
       d="M 41.814135,67.121742 0,24.479605"
       id="path4113"
       inkscape:connector-curvature="0"
       transform="matrix(13.369509,0,0,13.369509,6518.3047,6530.0109)" />
  </g>
</svg>
